HIERARCHY
ROOT hip
{
	OFFSET 0.000000 0.000000 0.000000 
	CHANNELS 6 Xposition Yposition Zposition Xrotation Zrotation Yrotation
	JOINT abdomen
	{
		OFFSET 0.000000 3.402643 0.000000 
		CHANNELS 3 Xrotation Zrotation Yrotation
		JOINT chest
		{
			OFFSET 0.000000 8.438565 -0.680529 
			CHANNELS 3 Xrotation Zrotation Yrotation
			JOINT neck
			{
				OFFSET 0.000000 10.207942 -0.272212 
				CHANNELS 3 Xrotation Zrotation Yrotation
				JOINT head
				{
					OFFSET 0.000000 3.130431 0.000000 
					CHANNELS 3 Xrotation Zrotation Yrotation
					End Site
					{
						OFFSET 0.000000 3.130435 0.000000 
					}
				}
			}
			JOINT lCollar
			{
				OFFSET 3.470700 6.669187 -0.816635 
				CHANNELS 3 Yrotation Zrotation Xrotation
				JOINT lShldr
				{
					OFFSET 3.198488 0.000000 0.000000 
					CHANNELS 3 Zrotation Yrotation Xrotation
					JOINT lForeArm
					{
						OFFSET 10.139888 0.000000 0.000000 
						CHANNELS 3 Yrotation Zrotation Xrotation
						JOINT lHand
						{
							OFFSET 8.370511 0.000000 0.000000 
							CHANNELS 3 Zrotation Yrotation Xrotation
							End Site
							{
								OFFSET 4.083176 0.000000 0.000000 
							}
						}
					}
				}
			}
			JOINT rCollar
			{
				OFFSET -3.470700 6.669187 -0.816635 
				CHANNELS 3 Yrotation Zrotation Xrotation
				JOINT rShldr
				{
					OFFSET -3.198488 0.000000 0.000000 
					CHANNELS 3 Zrotation Yrotation Xrotation
					JOINT rForeArm
					{
						OFFSET -10.139888 0.000000 0.000000 
						CHANNELS 3 Yrotation Zrotation Xrotation
						JOINT rHand
						{
							OFFSET -8.370511 0.000000 0.000000 
							CHANNELS 3 Zrotation Yrotation Xrotation
							End Site
							{
								OFFSET -4.083176 0.000000 0.000000 
							}
						}
					}
				}
			}
		}
	}
	JOINT lThigh
	{
		OFFSET 5.308129 -1.633274 1.361059 
		CHANNELS 3 Xrotation Zrotation Yrotation
		JOINT lShin
		{
			OFFSET -2.041588 -20.007561 0.000000 
			CHANNELS 3 Xrotation Zrotation Yrotation
			JOINT lFoot
			{
				OFFSET 0.000000 -19.190928 -1.224953 
				CHANNELS 3 Xrotation Yrotation Zrotation
				End Site
				{
					OFFSET 0.000000 -2.449906 4.627600 
				}
			}
		}
	}
	JOINT rThigh
	{
		OFFSET -5.308129 -1.633274 1.361059 
		CHANNELS 3 Xrotation Zrotation Yrotation
		JOINT rShin
		{
			OFFSET 2.041588 -20.007561 0.000000 
			CHANNELS 3 Xrotation Zrotation Yrotation
			JOINT rFoot
			{
				OFFSET 0.000000 -19.190928 -1.224953 
				CHANNELS 3 Xrotation Yrotation Zrotation
				End Site
				{
					OFFSET 0.000000 -2.449906 4.627600 
				}
			}
		}
	}
}
MOTION
Frames: 6
Frame Time: 0.033333
28.106979 43.447540 37.551605 -4.552403 -5.519748 -52.989086 -25.624998 0.244139 -0.059301 39.133980 3.284197 -0.716826 5.699736 -13.267026 26.812643 -16.686773 5.101218 22.426081 -5.995713 -15.145124 12.384649 -54.022095 -36.750477 24.010395 -68.418297 4.844868 -22.424913 14.966388 -30.544786 -4.785716 16.716137 7.733168 21.838251 65.180031 58.483295 53.092941 28.966385 -5.764464 -37.646976 -28.570190 47.497749 -14.700920 -23.346861 18.600889 6.355625 28.046818 1.801435 7.786339 5.809678 -0.419291 -13.796818 -7.772075 -17.386683 -11.649792 47.947041 4.042094 -16.755051 -24.158752 -3.915816 14.157807 
27.990828 43.435333 37.487934 -4.464622 -5.588568 -52.943417 -22.570477 -4.174431 0.776446 39.066509 3.280438 -0.662979 5.685241 -12.821869 26.287838 -16.077169 4.974346 22.724691 -5.995765 -15.024674 12.455634 -54.184402 -36.807774 20.901743 -68.563271 2.044344 -22.027426 13.872176 -30.593967 -4.059259 16.617994 6.981520 21.766010 65.805176 58.640049 52.355396 30.285145 -5.707113 -37.839046 -27.145340 46.656521 -12.417778 -23.483364 18.669073 5.824074 28.230978 1.737104 7.883971 5.593768 -0.316341 -13.989381 -7.762263 -17.082790 -12.024255 48.011440 3.786614 -16.566280 -24.304300 -3.978988 14.005478 
27.822313 43.444286 37.373165 -4.357056 -5.638061 -52.823231 -20.687696 -6.939095 1.170984 39.321793 2.874599 -0.501392 5.228385 -12.347350 24.874660 -14.848732 5.550992 21.549280 -5.792179 -14.642625 11.945588 -55.086613 -36.423874 20.701790 -67.492096 0.546519 -21.856501 14.270688 -32.003525 -4.135334 16.212967 5.281929 21.207672 67.069969 58.856293 51.936161 33.572903 -6.637260 -36.858513 -25.291073 42.983212 -9.840977 -23.688862 18.249819 4.116409 28.797552 1.693288 8.034491 4.259293 -0.032322 -14.493995 -7.674611 -16.547749 -11.942177 47.958271 3.798675 -16.966230 -24.451914 -4.005905 13.910567 
27.776747 43.399940 37.485657 -4.320193 -5.949965 -53.262657 -20.727631 -6.881092 1.160965 40.089615 2.429380 -0.684522 5.344395 -11.067187 23.384218 -15.162429 5.527694 20.242329 -5.927512 -14.450570 12.307850 -55.222118 -35.978344 21.299601 -66.983482 0.818194 -20.863985 16.813835 -32.576557 -5.050250 15.348603 4.010779 20.503275 69.078461 59.266666 53.679585 35.331951 -7.196592 -37.004894 -24.165031 40.604744 -8.900222 -23.954149 17.421236 2.388948 30.623724 1.878450 6.309657 1.502725 0.365116 -14.835347 -7.450801 -16.364601 -11.713879 47.996197 3.671174 -16.783808 -24.540262 -4.053537 14.017296 
27.923782 43.412552 37.865360 -3.841770 -6.323764 -54.859848 -20.727631 -6.881092 1.160965 41.041767 2.249483 -1.334116 5.326446 -9.347746 21.465487 -15.662358 5.492091 18.567617 -6.058276 -14.333002 12.730304 -55.738785 -35.932571 21.625200 -65.363869 1.541969 -20.608278 16.290503 -33.966969 -5.067055 14.941809 3.282249 20.315651 69.643211 60.121197 54.425747 36.739662 -7.729281 -37.563484 -22.891691 38.414780 -7.999931 -23.987835 15.845598 -0.269858 32.470253 2.635153 4.913505 -0.917812 0.751636 -15.289491 -7.616523 -16.168173 -10.518956 47.435665 3.630584 -16.253901 -23.975815 -4.021541 14.166869 
28.342255 43.605392 38.759068 -2.654241 -6.584787 -58.514660 -20.727631 -6.881092 1.160965 42.242668 2.472533 -2.717584 4.123005 -7.998641 19.271717 -16.431034 6.311249 16.168095 -6.281250 -14.187073 12.893679 -56.148064 -35.874527 22.521305 -64.060326 2.123213 -21.114113 18.037020 -35.256115 -5.862772 14.101324 2.643041 19.500347 70.287010 61.312675 56.147251 37.837742 -8.076981 -37.971062 -21.131758 36.084518 -6.963883 -23.705772 14.430803 -3.029539 34.105938 2.898817 6.627759 -2.845228 1.065163 -15.227092 -7.871093 -16.219543 -9.426581 44.987907 3.007039 -13.875268 -22.115402 -3.732259 14.163434 
